<svg width="34" height="58" viewBox="0 0 34 58" fill="none" xmlns="http://www.w3.org/2000/svg">
<path d="M32.49 1.52593C32.9687 2.00649 33.3484 2.5773 33.6075 3.20569C33.8666 3.83408 34 4.5077 34 5.18801C34 5.86832 33.8666 6.54195 33.6075 7.17034C33.3484 7.79873 32.9687 8.36954 32.49 8.85009L12.4563 29.0045L32.49 49.159C33.4554 50.1302 33.9978 51.4475 33.9978 52.821C33.9978 54.1946 33.4554 55.5119 32.49 56.4831C31.5246 57.4544 30.2152 58 28.8499 58C27.4845 58 26.1751 57.4544 25.2097 56.4831L1.50998 32.6406C1.03132 32.1601 0.651573 31.5893 0.392467 30.9609C0.133366 30.3325 0 29.6589 0 28.9786C0 28.2982 0.133366 27.6246 0.392467 26.9962C0.651573 26.3678 1.03132 25.797 1.50998 25.3165L25.2097 1.47399C27.1718 -0.499902 30.4763 -0.499901 32.49 1.52593Z" fill="white" fill-opacity="0.6"/>
</svg>
