<svg width="34" height="58" viewBox="0 0 34 58" fill="none" xmlns="http://www.w3.org/2000/svg">
<path d="M1.50999 1.52593C1.03133 2.00649 0.651578 2.5773 0.392474 3.20569C0.13337 3.83408 0 4.5077 0 5.18801C0 5.86832 0.13337 6.54195 0.392474 7.17034C0.651578 7.79873 1.03133 8.36954 1.50999 8.85009L21.5437 29.0045L1.50999 49.159C0.54456 50.1302 0.00218632 51.4475 0.00218632 52.821C0.00218632 54.1946 0.54456 55.5119 1.50999 56.4831C2.47542 57.4544 3.78482 58 5.15014 58C6.51546 58 7.82487 57.4544 8.79029 56.4831L32.49 32.6406C32.9687 32.1601 33.3484 31.5893 33.6075 30.9609C33.8666 30.3325 34 29.6589 34 28.9786C34 28.2982 33.8666 27.6246 33.6075 26.9962C33.3484 26.3678 32.9687 25.797 32.49 25.3165L8.79029 1.47399C6.82823 -0.499902 3.52369 -0.499901 1.50999 1.52593Z" fill="white" fill-opacity="0.6"/>
</svg>
