<svg width="17" height="29" viewBox="0 0 17 29" fill="none" xmlns="http://www.w3.org/2000/svg">
<path d="M0.743296 0.746646C0.507674 0.981785 0.320741 1.26109 0.193196 1.56856C0.0656518 1.87603 0 2.20564 0 2.53852C0 2.8714 0.0656518 3.20101 0.193196 3.50848C0.320741 3.81596 0.507674 4.09526 0.743296 4.3304L10.605 14.1921L0.743296 24.0537C0.268061 24.529 0.00107622 25.1735 0.00107622 25.8456C0.00107622 26.5177 0.268061 27.1622 0.743296 27.6375C1.21853 28.1127 1.86309 28.3797 2.53517 28.3797C3.20725 28.3797 3.85181 28.1127 4.32705 27.6375L15.9933 15.9712C16.2289 15.7361 16.4159 15.4568 16.5434 15.1493C16.6709 14.8418 16.7366 14.5122 16.7366 14.1794C16.7366 13.8465 16.6709 13.5169 16.5434 13.2094C16.4159 12.9019 16.2289 12.6226 15.9933 12.3875L4.32705 0.721229C3.36121 -0.244605 1.73455 -0.244604 0.743296 0.746646Z" fill="#BABABA"/>
</svg>
