<svg width="17" height="29" viewBox="0 0 17 29" fill="none" xmlns="http://www.w3.org/2000/svg">
<path d="M15.9935 0.746646C16.2291 0.981785 16.4161 1.26109 16.5436 1.56856C16.6712 1.87603 16.7368 2.20564 16.7368 2.53852C16.7368 2.8714 16.6712 3.20101 16.5436 3.50848C16.4161 3.81596 16.2291 4.09526 15.9935 4.3304L6.13186 14.1921L15.9935 24.0537C16.4688 24.529 16.7357 25.1735 16.7357 25.8456C16.7357 26.5177 16.4688 27.1622 15.9935 27.6375C15.5183 28.1127 14.8737 28.3797 14.2016 28.3797C13.5296 28.3797 12.885 28.1127 12.4098 27.6375L0.743519 15.9712C0.507896 15.7361 0.320963 15.4568 0.193419 15.1493C0.0658741 14.8418 0.000225067 14.5122 0.000225067 14.1794C0.000225067 13.8465 0.0658741 13.5169 0.193419 13.2094C0.320963 12.9019 0.507896 12.6226 0.743519 12.3875L12.4098 0.721229C13.3756 -0.244605 15.0023 -0.244604 15.9935 0.746646Z" fill="#BABABA"/>
</svg>
